# xmcd
#
# Track frame offsets: 
#        150
#        11381
#        21859
#        33427
#        43875
#        54760
#        79824
#        90680
#        103191
#        112217
#        125707
#        140950
#
# Disc length: 2196 seconds
#
# Revision: 0
# Processed by: cddbd v1.5.2PL0 Copyright (c) Steve Scherf et al.
# Submitted via: ExactAudioCopy v1.0b4
#
DISCID=a608920c
DTITLE=Yardbirds - The Yardbirds (LP)
DYEAR=1900
DGENRE=Blues
TTITLE0=For Your Love
TTITLE1=A Certain Girl
TTITLE2=A Certain Girl
TTITLE3=I Wish You Would
TTITLE4=Evil Hearted You
TTITLE5=Smokestack Lightning
TTITLE6=Shapes Of Things
TTITLE7=Good Morning Little Schoolgirl
TTITLE8=Jeff's Blues
TTITLE9=Still I'm Sad
TTITLE10=Train Kept Rolling
TTITLE11=Here 'Tis
EXTD=
EXTT0=
EXTT1=
EXTT2=
EXTT3=
EXTT4=
EXTT5=
EXTT6=
EXTT7=
EXTT8=
EXTT9=
EXTT10=
EXTT11=
PLAYORDER=
